<?xml version="1.0" encoding="utf-8"?>
<!-- Generator: Adobe Illustrator 27.5.0, SVG Export Plug-In . SVG Version: 6.00 Build 0)  -->
<svg version="1.1" xmlns="http://www.w3.org/2000/svg" xmlns:xlink="http://www.w3.org/1999/xlink" x="0px" y="0px"
	 viewBox="0 0 500 500" style="enable-background:new 0 0 500 500;" xml:space="preserve">
<g id="BACKGROUND">
	<g>
		<rect style="fill:#FFFFFF;" width="500" height="500"/>
		<rect x="-0.04" style="fill:#6EAA50;" width="500" height="500"/>
		<g>
			<path style="fill:none;stroke:#FFFFFF;stroke-width:0.8993;stroke-miterlimit:10;" d="M390.266,112.555
				c-0.816-0.566-1.808-0.897-2.877-0.897c-1.837,0-3.442,0.982-4.329,2.447c-0.924-1.228-2.389-2.026-4.044-2.026
				c-1.338,0-2.553,0.52-3.458,1.368"/>
			<path style="fill:none;stroke:#FFFFFF;stroke-width:0.8993;stroke-miterlimit:10;" d="M398.762,142.063
				c-1.288-0.893-2.852-1.416-4.538-1.416c-2.899,0-5.43,1.55-6.829,3.86c-1.457-1.938-3.769-3.196-6.38-3.196
				c-2.111,0-4.029,0.82-5.455,2.159"/>
			<path style="fill:none;stroke:#FFFFFF;stroke-width:0.8993;stroke-miterlimit:10;" d="M413.263,126.359
				c-1.03-0.714-2.28-1.132-3.629-1.132c-2.318,0-4.342,1.239-5.461,3.087c-1.166-1.549-3.014-2.556-5.102-2.556
				c-1.688,0-3.222,0.656-4.362,1.727"/>
			<path style="fill:none;stroke:#FFFFFF;stroke-width:0.8993;stroke-miterlimit:10;" d="M204.819,101.168h-23.525
				c0.075-0.457,0.124-0.923,0.124-1.401c0-4.436-3.347-8.086-7.652-8.574c-2.408-7.923-9.765-13.691-18.475-13.691
				c-8.285,0-15.331,5.227-18.072,12.555c-1.541-0.758-3.268-1.196-5.101-1.196c-6.399,0-11.587,5.188-11.587,11.587
				c0,0.243,0.022,0.48,0.036,0.72h-8.783"/>
			
				<line style="fill:none;stroke:#FFFFFF;stroke-width:0.8993;stroke-miterlimit:10;" x1="189.313" y1="105.276" x2="216.747" y2="105.276"/>
			<path style="fill:none;stroke:#FFFFFF;stroke-width:0.8993;stroke-miterlimit:10;" d="M341.68,124.788h-12.905
				c-0.005-0.041-0.01-0.081-0.016-0.122c-0.466-3.394-2.869-6.279-6.096-7.427c-1.781-0.634-3.49-0.671-5.059-0.334
				c-2.381-3.952-6.7-6.604-11.65-6.604c-1.309,0-2.571,0.195-3.77,0.541c-0.979-8.156-7.911-14.482-16.332-14.482
				c-9.092,0-16.462,7.37-16.462,16.462c0,1.479,0.213,2.905,0.579,4.269c-4.237,1.122-7.282,5.177-6.8,9.868h-12.543"/>
			
				<text transform="matrix(1 0 0 1 268.2657 173.8084)" style="fill:#FFFFFF; font-family:'OpenSans-BoldItalic'; font-size:8.0938px;">ANSWER</text>
			
				<text transform="matrix(1 0 0 1 200.5145 152.0945)" style="fill:#FFFFFF; font-family:'OpenSans-BoldItalic'; font-size:8.0938px;">ANSWER</text>
			
				<text transform="matrix(1 0 0 1 262.593 153.8249)" style="fill:#FFFFFF; font-family:'OpenSans-BoldItalic'; font-size:11.8562px;">ANSWER</text>
			
				<text transform="matrix(1 0 0 1 147.8848 133.9288)" style="fill:#FFFFFF; font-family:'OpenSans-BoldItalic'; font-size:11.8562px;">ANSWER</text>
			
				<text transform="matrix(1 0 0 1 148.7321 162.4019)" style="fill:#FFFFFF; font-family:'OpenSans-BoldItalic'; font-size:7.1944px;">ANSWER</text>
		</g>
	</g>
</g>
<g id="OBJECTS">
	<g>
		<path style="fill:#5A915A;" d="M425.42,303.992c0,3.325-77.485,6.02-173.068,6.02s-173.068-2.695-173.068-6.02
			c0-3.325,77.485-6.02,173.068-6.02S425.42,300.668,425.42,303.992z"/>
		<g>
			<path style="fill:#FAC855;" d="M79.436,264.04c-6.468-9.599-14.979-11.344-22.143-10.528l0.528,3.994l-2.67-3.67
				c-6.904,1.292-12.094,4.633-12.094,4.633c4.761-0.702,9.293,2.978,14.144,8.031l3.093-0.847l-2.22,1.766
				c5.717,6.087,11.914,13.807,19.467,18.374c14.4,8.707,28.944,16.837,28.944,16.837S93.078,284.285,79.436,264.04z"/>
			<path style="fill:#FAC855;" d="M94.048,225.148c-3.156-2.004-6.09-3.593-8.795-4.847l-1.475,2.72v-3.38
				c-13.64-5.901-21.013-3.136-21.013-3.136s17.456,7.371,23.754,19.932l4.575,0.889l-3.903,0.578
				c0.94,2.255,1.521,4.659,1.567,7.212c0.319,17.786,4.99,39.002,17.682,49.844C106.441,294.961,114.224,237.962,94.048,225.148z"
				/>
			<path style="fill:#FFDC64;" d="M77.541,286.325c-3.986-1.463-7.527-1.084-10.418-0.02l1.308,2.463l-2.581-1.934
				c-4.243,1.969-6.783,5.216-6.783,5.216c13.737-1.66,17.716,5.828,27.947,9.721s19.471-1.085,19.471-1.085
				S88.425,290.321,77.541,286.325z"/>
			<path style="fill:#FFE678;" d="M67.598,292.261c1.656-1.178,3.901-1.1,5.527,0.119l0.067,0.05l0,0
				c-0.706-1.329,0.086-2.984,1.573-3.223c2.256-0.362,4.791-0.229,7.536,0.779c7.003,2.571,16.97,7.776,23.192,11.163
				c0.635-0.274,0.991-0.463,0.991-0.463s-18.06-10.365-28.944-14.362c-3.986-1.463-7.527-1.084-10.418-0.02l1.308,2.463
				l-2.581-1.934c-4.243,1.969-6.783,5.216-6.783,5.216c3.334-0.403,6.091-0.264,8.504,0.229
				C67.58,292.274,67.589,292.267,67.598,292.261z"/>
			<g>
				<path style="fill:#F5C047;" d="M68.78,215.885c-2.52-0.089-4.284,0.184-5.217,0.399c-0.021,0.181-0.042,0.364-0.063,0.55
					c1.322,0.609,4.294,2.059,7.755,4.262C70.352,219.223,69.521,217.469,68.78,215.885z"/>
				<path style="fill:#F5C047;" d="M106.441,294.961c0,0,0.31-2.277,0.646-6.015c-2.574-9.653-6.905-21.967-13.563-29.746
					c-1.39-1.623-2.831-3.546-4.294-5.672C90.708,269.191,95.704,285.788,106.441,294.961z"/>
			</g>
			<path style="fill:#F5C047;" d="M97.54,297.549c5.364,3.079,8.945,5.081,8.945,5.081s-13.407-18.345-27.049-38.59
				c-4.955-7.354-11.107-10.089-16.936-10.604c1.632,6.265,4.35,12.137,8.717,16.646C80.587,279.754,90.433,290.071,97.54,297.549z"
				/>
			<path style="fill:#FFDC64;" d="M89.825,258.469c-4.217-4.926-8.906-12.568-13.247-20.479l-3.031,1.516l2.222-3.006
				c-7.946-14.685-14.523-29.771-14.523-29.771s-1.827,8.322-2.134,19.07l3.654,1.96h-3.693c-0.019,1.857,0.011,3.773,0.105,5.72
				l5.843,1.669h-5.743c0.716,10.559,3.443,21.775,10.684,29.249c17.432,17.994,36.523,38.233,36.523,38.233
				S102.11,272.82,89.825,258.469z"/>
			<g>
				<path style="fill:#FFE678;" d="M80.993,245.697l-0.245,0.332l0.342-0.171C81.057,245.804,81.025,245.75,80.993,245.697z"/>
				<path style="fill:#FFE678;" d="M77.162,270.92c-5.893-6.083-8.797-14.645-10.059-23.313c-0.455-3.127,1.958-5.936,5.118-5.936
					l0,0l-3.593-1.027c-1.36-0.389-2.302-1.623-2.334-3.036c0-0.019-0.001-0.038-0.001-0.058c-0.04-1.797,1.42-3.269,3.218-3.269
					h0.456l0,0c-2.264-1.214-3.621-3.642-3.452-6.205c0.205-3.093,0.511-5.874,0.821-8.171c-3.671-7.633-6.089-13.177-6.089-13.177
					s-1.827,8.322-2.134,19.07l3.654,1.96h-3.693c-0.019,1.857,0.011,3.773,0.105,5.72l5.843,1.669h-5.743
					c0.716,10.559,3.443,21.775,10.684,29.249c17.432,17.994,36.523,38.233,36.523,38.233S87.833,281.936,77.162,270.92z"/>
			</g>
			<g>
				<path style="fill:#FFE678;" d="M72.474,248.587c0.773,2.191,2.059,4.143,3.407,6.006c1.361,1.862,2.86,3.62,4.45,5.291
					c1.602,1.669,3.272,3.222,4.903,4.941c0.788,0.868,1.543,1.765,2.279,2.673c0.698,0.935,1.448,1.838,2.099,2.806
					c2.645,3.846,5.015,7.862,7.162,11.986c2.13,4.133,4.104,8.345,5.799,12.67c-1.04-2.076-2.076-4.15-3.173-6.192
					c-1.061-2.06-2.17-4.094-3.303-6.113c-2.276-4.028-4.625-8.021-7.302-11.776c-0.632-0.966-1.356-1.86-2.032-2.793
					c-0.712-0.901-1.441-1.791-2.2-2.65c-1.529-1.678-3.273-3.274-4.797-5.036c-1.539-1.754-2.991-3.588-4.286-5.531
					C74.253,252.896,73.035,250.856,72.474,248.587z"/>
			</g>
			<g>
				<path style="fill:#F5C047;" d="M79.926,222.705c5.242,1.732,10.154,4.746,13.835,9.005c1.824,2.14,3.192,4.675,4.019,7.372
					c0.169,0.685,0.434,1.352,0.522,2.053l0.29,2.102c0.155,1.386,0.213,2.75,0.365,4.124c0.458,5.493,1.193,10.966,1.947,16.435
					c0.371,2.736,0.77,5.469,1.192,8.199l1.245,8.197c-1.249-5.389-2.282-10.824-3.198-16.28
					c-0.913-5.457-1.643-10.946-2.182-16.462c-0.137-1.375-0.183-2.776-0.321-4.137l-0.255-2.008
					c-0.075-0.672-0.325-1.307-0.478-1.964c-0.75-2.592-2.069-5.001-3.74-7.145c-1.699-2.128-3.767-3.959-6.012-5.532
					C84.924,225.067,82.482,223.753,79.926,222.705z"/>
			</g>
		</g>
		<rect x="91.67" y="360.392" style="fill:none;" width="312.343" height="48.176"/>
		<text transform="matrix(1 0 0 1 100.7512 366.4726)"><tspan x="0" y="0" style="fill:#FFFFFF; font-family:'OpenSans-Light'; font-size:8px;">Lorem ipsum dolor sit amet, consectetuer adipiscing elit, sed diam nonummy nibh </tspan><tspan x="1.521" y="14" style="fill:#FFFFFF; font-family:'OpenSans-Light'; font-size:8px;">euismod tincidunt ut laoreet dolore magna aliquam erat volutpat. Ut wisi enim ad </tspan><tspan x="36.652" y="28" style="fill:#FFFFFF; font-family:'OpenSans-Light'; font-size:8px;">minim veniam, quis nostrud exerci tation ullamcorper suscipit</tspan></text>
		
			<text transform="matrix(1 0 0 1 110.4589 303.3828)" style="fill:#FFFFFF; font-family:'FamiliarPro-Bold'; font-size:168.4809px;">FAQ</text>
		<g>
			<path style="fill:#50555A;" d="M371.723,177.194c0,0.695-0.563,1.258-1.258,1.258c-0.695,0-1.258-0.563-1.258-1.258
				c0-0.695,0.563-1.258,1.258-1.258C371.159,175.937,371.723,176.5,371.723,177.194z"/>
			<g>
				
					<rect x="364.615" y="177.249" transform="matrix(0.9917 0.1283 -0.1283 0.9917 26.2353 -45.4563)" style="fill:#50555A;" width="2.472" height="7.209"/>
				<path style="fill:#E16450;" d="M359.397,175.254l-1.407-0.541c-0.444-0.171-0.666-0.669-0.495-1.113l0.823-2.141
					c0.171-0.444,0.669-0.666,1.113-0.495l1.407,0.541L359.397,175.254z"/>
				<path style="fill:#FFFFFF;" d="M369.292,179.04l-10.761-2.077c-0.434-0.084-0.687-0.54-0.528-0.952l2.32-6.036
					c0.154-0.401,0.626-0.574,1.003-0.369l9.555,5.216c0.312,0.171,0.45,0.546,0.323,0.878l-1.114,2.898
					C369.966,178.919,369.63,179.106,369.292,179.04z"/>
				<path style="fill:#50555A;" d="M360.323,169.975l-2.32,6.036c-0.159,0.413,0.094,0.868,0.528,0.952l2.795-7.357
					C360.949,169.4,360.477,169.574,360.323,169.975z"/>
			</g>
			<path style="fill:#FFB49B;" d="M350.113,182.486c0,0-3.265-3.685-4.67-3.419c-1.405,0.267-3.381,1.729-4.354,2.045
				s-3.684,2.013-1.818,2.057c1.867,0.044,5.814-0.887,7.321-0.351C348.099,183.355,350.113,182.486,350.113,182.486z"/>
			<path style="fill:#E64B55;" d="M349.768,180.185c0,0,10.164,7.597,14.203,8.497c3.288,0.733,13.161-5.326,13.161-5.326
				l-1.779,5.412c0,0-8.464,8.15-12.283,7.93c-3.949-0.227-17.279-5.816-17.279-5.816
				C346.225,185.819,347.024,183.604,349.768,180.185z"/>
			<path style="fill:#FFDC64;" d="M375.37,178.636c0.21-2.058,1.396-4.975,2.726-5.811c2.126-1.337,5.487,1.62,6.753,0.827
				c2.102-1.317,4.822,0.395,5.737,3.367c0.22,0.715,0.312,1.429,0.291,2.104c-0.027,0.866,0.27,1.735,0.794,2.413
				c0.426,0.551,0.751,1.25,0.901,2.053c0.017,0.093,0.032,0.186,0.043,0.278c0.226,1.824,1.116,3.467,2.312,4.85
				c1.209,1.399,1.838,3.313,1.529,5.354c-0.457,3.014-2.987,5.365-5.994,5.566c-3.953,0.265-7.143-2.989-6.967-6.878
				c0.04-0.892,0.256-1.734,0.608-2.496c-0.056-0.006-0.111-0.012-0.167-0.022c-0.555,0.559-1.277,0.901-2.153,0.878
				c-1.483-0.038-2.998-1.222-3.799-2.985c-0.416-0.916-0.611-1.856-0.616-2.737c-0.007-1.423-0.544-2.854-1.409-3.944
				C375.337,180.669,375.23,180.008,375.37,178.636z"/>
			<path style="fill:#41378C;" d="M363.267,266.641c0.266,1.535-0.799,1.655-2.692,1.873c-1.894,0.217-3.284,0.1-3.34-0.388
				c-0.052-0.455,0.684-0.983,2.408-1.797C361.713,265.352,363.094,265.642,363.267,266.641z"/>
			<path style="fill:#FFB49B;" d="M362.944,264.133l-0.503,2.401c-0.047,0.396-0.393,0.687-0.791,0.665l0,0
				c-0.401-0.021-0.715-0.352-0.715-0.753l-0.13-3.106L362.944,264.133z"/>
			<path style="fill:#AB51A6;" d="M369.772,204.53c0,0-5.32,1.75-6.957,8.764c-1.554,6.657-2.718,46.634-2.64,50.511
				c0.004,0.188,0.13,0.355,0.313,0.399c0.783,0.189,1.612,0.22,2.524-0.029c0.149-0.041,0.264-0.166,0.299-0.317l9.634-42.088
				c1.302-5.688,1.117-11.615-0.536-17.211l-0.013-0.045L369.772,204.53z"/>
			<path style="fill:#41378C;" d="M402.44,240.146c0.907-1.267,1.74-0.592,3.223,0.605c1.483,1.197,2.375,2.27,2.067,2.653
				c-0.288,0.357-1.181,0.202-2.97-0.456C402.612,242.158,401.849,240.971,402.44,240.146z"/>
			<path style="fill:#FFB49B;" d="M400.438,239.314l2.331,0.765c0.737,0.234,0.989,0.61,0.924,1.003l0,0
				c-0.066,0.396-0.429,0.671-0.828,0.628l-3.102-0.213L400.438,239.314z"/>
			<path style="fill:#BE5AB9;" d="M373.248,204.001l8.393,1.397c6.576,4.13,4.947,10.263,3.381,13.898
				c-2.329,5.405-1.486,10.486-1.033,11.124c1.911,2.688,17.171,8.708,17.171,8.708c0.136,0.065,0.224,0.207,0.21,0.357
				c-0.074,0.772-0.124,1.284-0.523,2.306c-0.047,0.12-0.202,0.159-0.33,0.144c-6.692-0.816-20.185-2.37-23.891-5.772
				C368.137,228.37,373.248,204.001,373.248,204.001z"/>
			<path style="fill:#E64B55;" d="M369.772,204.53c0,0-1.915-10.788-0.071-15.15c1.137-2.689,4.369-7.447,9.81-6.333
				c3.628,0.743,10.731,3.319,9.113,8.789c-1.109,3.747-3.331,11.115-7.687,14.68C380.936,206.517,374.578,208.58,369.772,204.53z"
				/>
			<path style="fill:#FFA587;" d="M379.533,186.198L379.533,186.198c1.051,0.215,2.078-0.463,2.293-1.514l1.286-6.282l-3.807-0.779
				l-1.286,6.282C377.804,184.956,378.482,185.983,379.533,186.198z"/>
			<path style="fill:#F5876E;" d="M378.685,182.59L378.685,182.59c-0.129-0.026-0.253-0.065-0.374-0.111l0.994-4.856l3.807,0.779
				l-0.145,0.709C382.579,181.004,380.577,182.977,378.685,182.59z"/>
			<path style="fill:#FFB49B;" d="M378.422,181.49L378.422,181.49c1.666,0.341,4.314-1.216,4.655-2.883l0.704-3.44l-6.035-1.235
				l-0.704,3.44C376.701,179.039,377.693,181.341,378.422,181.49z"/>
			<path style="fill:#FFA587;" d="M384.648,177.312c-0.152,0.745-0.873,1.226-1.608,1.076l0.552-2.697
				C384.327,175.841,384.8,176.567,384.648,177.312z"/>
			<path style="fill:#FFA587;" d="M377.839,173.48l5.086,1.041l-0.229,1.119c0.513,0.135,0.838,0.65,0.729,1.183
				c-0.028,0.138-0.084,0.263-0.158,0.372c-0.116-0.073-0.223-0.158-0.313-0.256c-0.192-0.21-0.451-0.337-0.729-0.396
				c-0.608-0.129-1.128-0.457-1.504-0.912c-0.524-0.634-1.285-1.054-2.106-1.09c-0.173-0.008-0.348-0.029-0.523-0.065
				c-0.143-0.029-0.296-0.076-0.431-0.122L377.839,173.48z"/>
			<path style="fill:#FFDC64;" d="M380.337,167.596c0.958,0.225,1.725,0.846,2.163,1.653c0.459,0.846,1.25,1.44,2.138,1.81
				c0.01,0.004,0.021,0.009,0.031,0.013c0.983,0.424,1.635,1.427,1.612,2.497c-0.003,0.142-0.017,0.28-0.039,0.414
				c-0.076,0.443-0.083,0.904,0.045,1.335c0.06,0.201,0.073,0.416,0.029,0.633c-0.155,0.755-0.933,1.233-1.739,1.068
				c-0.334-0.068-0.619-0.238-0.827-0.466c-0.191-0.209-0.449-0.335-0.727-0.394c-0.606-0.128-1.123-0.455-1.498-0.908
				c-0.522-0.631-1.279-1.049-2.097-1.085c-0.173-0.007-0.347-0.029-0.521-0.064c-1.834-0.375-3.005-2.191-2.575-4.027
				C376.734,168.361,378.621,167.194,380.337,167.596z"/>
			<path style="fill:#FFB49B;" d="M368.156,182.245c-0.13-0.565-0.494-1.047-1.002-1.326c-0.75-0.411-1.846-1.015-2.46-1.366
				c-0.432-0.247-0.997-0.033-1.125,0.447c-0.094,0.35-0.264,0.742-0.566,1.114c-0.845,1.04-0.853,2.495-0.568,3.191
				c0.285,0.696,3.821,0.856,3.821,0.856l0.499,1.729l2.225-1.066L368.156,182.245z"/>
			<path style="fill:#FF6473;" d="M370.726,183.169c0,0,2.604,11.14,4.59,11.793c1.449,0.476,6.974-5.352,9.598-7.034
				c0.858-0.55,1.974-0.474,2.746,0.19l0.007,0.006c1.185,1.02,0.695,2.507-0.306,3.708c-4.321,5.182-10.654,10.545-13.591,10.17
				c-4.372-0.558-11.204-11.63-11.204-11.63S363.328,186.293,370.726,183.169z"/>
		</g>
		<g>
			<path style="fill:#41378C;" d="M234.935,287.998c1.304,0.85,0.667,1.711-0.463,3.244c-1.13,1.533-2.162,2.47-2.557,2.179
				c-0.368-0.271-0.253-1.17,0.325-2.984C232.934,288.258,234.086,287.445,234.935,287.998z"/>
			<path style="fill:#FFB49B;" d="M233.956,285.879l0.624,2.37c0.135,0.374-0.044,0.789-0.409,0.948l0,0
				c-0.367,0.16-0.796,0.005-0.976-0.354l-1.505-2.717L233.956,285.879z"/>
			<path style="fill:#41378C;" d="M249.692,288.426c-1.364,0.751-0.793,1.656,0.22,3.269c1.013,1.613,1.972,2.625,2.388,2.364
				c0.388-0.243,0.34-1.148-0.102-3C251.669,288.833,250.581,287.937,249.692,288.426z"/>
			<path style="fill:#FFB49B;" d="M250.827,286.385l-0.798,2.317c-0.162,0.363-0.015,0.79,0.337,0.976l0,0
				c0.355,0.187,0.793,0.064,0.999-0.28l1.703-2.598L250.827,286.385z"/>
			<path style="fill:#695A6E;" d="M253.792,247.316c-3.158-3.383-11.355,0.631-11.45,0.493c-0.022-0.032-0.044-0.065-0.066-0.097
				c-2.609-3.845-8.059-4.341-11.23-0.944c-4.761,5.1-10.389,11.979-10.515,16.115c-0.209,6.833,10.036,19.802,10.864,23.535
				c0.04,0.181,0.206,0.312,0.391,0.319c0.802,0.029,1.617-0.104,2.459-0.527c0.138-0.069,0.226-0.215,0.23-0.37l-4.192-22.785
				c0,0,4.446-1.153,8.26-3.497c2.157-1.325,4.928-1.333,7.028,0.08c3.95,2.658,8.984,3.964,8.984,3.964l-4.192,22.785
				c0.004,0.155,0.092,0.3,0.23,0.37c0.841,0.423,1.658,0.556,2.459,0.527c0.185-0.007,0.351-0.139,0.391-0.319
				c0.828-3.733,11.072-16.702,10.864-23.535C264.181,259.295,258.553,252.416,253.792,247.316z"/>
			<path style="fill:#FA690F;" d="M239.923,219.501c0.335,0.958,0.097,1.913-0.531,2.133c-0.629,0.22-1.414-0.377-1.744-1.337
				c-1.636-4.759-0.364-3.194,0.265-3.414C238.541,216.663,239.588,218.542,239.923,219.501z"/>
			<path style="fill:#0091C8;" d="M247.185,247.088c0,0,3.572-9.877,2.641-14.515c-0.574-2.86-2.785-8.165-8.334-8.164
				c-3.7,0.001-10.841,5.229-10.44,9.937c0.331,3.891,0.793,8.387,4.343,12.749C235.396,247.096,241.669,250.09,247.185,247.088z"/>
			<path style="fill:#FFA587;" d="M240.839,227.488L240.839,227.488c-1.072,0-1.941-0.869-1.941-1.941v-6.406h3.883v6.406
				C242.781,226.619,241.912,227.488,240.839,227.488z"/>
			<path style="fill:#F5876E;" d="M242.393,225.739L242.393,225.739c0.131,0,0.261-0.013,0.388-0.034v-4.952h-3.883v0.723
				C238.898,223.405,240.463,225.739,242.393,225.739z"/>
			<path style="fill:#FFB49B;" d="M242.177,225.013L242.177,225.013c-1.673-0.297-3.558-2.719-3.261-4.392l0.614-3.454l6.059,1.077
				l-0.614,3.454C244.678,223.371,242.908,225.143,242.177,225.013z"/>
			<path style="fill:#FFA587;" d="M237.934,218.839c-0.133,0.748,0.358,1.46,1.097,1.592l0.481-2.708
				C238.774,217.591,238.067,218.091,237.934,218.839z"/>
			<path style="fill:#FFA587;" d="M245.669,217.79l-5.106-0.907l-0.2,1.123c-0.526-0.064-1.018,0.295-1.113,0.83
				c-0.025,0.138-0.019,0.275,0.01,0.403c0.135-0.025,0.265-0.065,0.385-0.123c0.256-0.124,0.543-0.146,0.823-0.098
				c0.613,0.105,1.216-0.009,1.733-0.293c0.72-0.395,1.581-0.505,2.357-0.236c0.164,0.057,0.334,0.102,0.51,0.133
				c0.143,0.025,0.303,0.039,0.445,0.046L245.669,217.79z"/>
			<path style="fill:#FA690F;" d="M247.344,210.071c-1.177-0.175-2.317,0.182-3.169,0.894c-0.893,0.746-2.047,1.061-3.21,1.081
				c-0.014,0-0.027,0.001-0.041,0.001c-1.294,0.038-2.474,0.875-2.926,2.088c-0.06,0.161-0.106,0.322-0.14,0.482
				c-0.113,0.532-0.309,1.053-0.646,1.481c-0.157,0.199-0.268,0.435-0.315,0.698c-0.163,0.918,0.499,1.803,1.478,1.977
				c0.406,0.072,0.801,0.009,1.138-0.154c0.308-0.15,0.654-0.177,0.992-0.119c0.738,0.126,1.465-0.011,2.089-0.353
				c0.868-0.476,1.906-0.609,2.841-0.284c0.197,0.068,0.402,0.122,0.615,0.16c2.229,0.396,4.356-1.123,4.691-3.378
				C251.053,212.538,249.452,210.384,247.344,210.071z"/>
			<path style="fill:#0091C8;" d="M246.654,226.491c0,0,8.897,6.417,10.184,9.364c1.846,4.229,2.235,11.914,2.235,11.914
				s-4.792-0.146-6.792-2.674c0,0,0.832-5.272,0.572-7.165c-0.245-1.786-3.673-4.088-3.673-4.088L246.654,226.491z"/>
			<g>
				<path style="fill:#A5C8CD;" d="M239.216,253.562h17.082c0.34,0,0.577,0.337,0.463,0.657l-0.306,0.857
					c-0.07,0.195-0.255,0.326-0.463,0.326h-17.083c-0.34,0-0.577-0.337-0.463-0.657l0.306-0.857
					C238.823,253.692,239.008,253.562,239.216,253.562z"/>
				<path style="fill:#FFB49B;" d="M242.156,256.229h1.364c0.473,0,0.845-0.401,0.812-0.873c-0.014-0.2-0.044-0.404-0.09-0.614
					c-0.052-0.238-0.222-0.432-0.443-0.534c-0.318-0.147-0.759,0.069-0.785-0.138c-0.017-0.132,0.424-0.361,0.804-0.533
					c0.295-0.133,0.428-0.478,0.299-0.775c-1.001,0.348-1.977,0.455-2.923,0.264l-3.139-0.621l-0.186,1.819l2.4,1.442l0,0
					C240.83,256.034,241.486,256.229,242.156,256.229z"/>
				<path style="fill:#FFA587;" d="M240.101,252.809l-2.045-0.405l-0.186,1.819l1.834,1.102
					C239.893,254.496,240.027,253.657,240.101,252.809z"/>
				<path style="fill:#C8E6EB;" d="M260.362,255.401h-13.834c-0.661,0-1.154-0.61-1.015-1.257l2.181-10.115
					c0.103-0.478,0.526-0.819,1.015-0.819h13.834c0.661,0,1.154,0.61,1.015,1.257l-2.181,10.115
					C261.274,255.06,260.851,255.401,260.362,255.401z"/>
				<path style="fill:#B4D7DC;" d="M256.279,249.305c0,0.963-0.781,1.743-1.743,1.743c-0.963,0-1.743-0.781-1.743-1.743
					c0-0.963,0.781-1.743,1.743-1.743C255.498,247.562,256.279,248.343,256.279,249.305z"/>
			</g>
			<path style="fill:#41B4E6;" d="M235.989,228.895c-0.909-0.67-2.185-0.522-2.899,0.352c-2.311,2.825-7.157,9.023-8.146,12.469
				c-1.064,3.705,4.58,11.525,9.986,14.044c1.248,0.581,2.613,0.703,3.723-0.433l0.48-2.804c0,0,0.661-3.645-1.022-4.959
				c-2.994-2.338-6.929-1.345-7.267-7.36c-0.057-1.012,3.567-5.728,5.584-8.27c0.742-0.935,0.567-2.294-0.392-3.004
				C236.02,228.917,236.005,228.906,235.989,228.895z"/>
		</g>
		<g>
			<ellipse style="fill:#51946F;" cx="187.564" cy="332.292" rx="15.027" ry="1.605"/>
			<ellipse style="fill:#51946F;" cx="242.795" cy="332.292" rx="15.027" ry="1.605"/>
			<ellipse style="fill:#51946F;" cx="303.026" cy="332.292" rx="15.027" ry="1.605"/>
			<g>
				<g>
					<path style="fill:#FF8C46;" d="M253.656,330.3h-20.702l8.581-25.006c0.578-1.686,2.962-1.686,3.541,0L253.656,330.3z"/>
					<polygon style="fill:#FFFFFF;" points="233.576,328.488 253.034,328.488 250.936,322.374 235.674,322.374 					"/>
					<polygon style="fill:#FFFFFF;" points="237.772,316.259 248.838,316.259 246.74,310.144 239.87,310.144 					"/>
				</g>
				
					<line style="fill:none;stroke:#FF640A;stroke-width:3.5119;stroke-linecap:round;stroke-miterlimit:10;" x1="232.054" y1="330.3" x2="254.555" y2="330.3"/>
				
					<line style="fill:none;stroke:#FF8C46;stroke-width:3.5119;stroke-linecap:round;stroke-miterlimit:10;" x1="235.566" y1="330.3" x2="244.605" y2="330.3"/>
				
					<line style="fill:none;stroke:#FFB478;stroke-width:3.5119;stroke-linecap:round;stroke-miterlimit:10;" x1="237.908" y1="330.3" x2="239.922" y2="330.3"/>
			</g>
			<g>
				<path style="fill:#5046AF;" d="M167.567,244.639c-1.34-0.586-2.901,0.026-3.487,1.366c-0.015,0.033-0.028,0.066-0.041,0.1
					c-0.216,0.556-0.514,1.069-0.889,1.533c-0.117,0.145-0.217,0.308-0.295,0.487c-0.169,0.387-0.216,0.795-0.16,1.184
					c0.066,0.462,0.073,0.927,0.021,1.39c-0.119,1.078,0.464,2.153,1.51,2.61c1.289,0.563,2.79-0.025,3.354-1.314
					c0.361-0.825,0.245-1.735-0.22-2.432c0.678-0.232,1.264-0.729,1.573-1.437C169.519,246.786,168.907,245.225,167.567,244.639z"/>
				<path style="fill:#5046AF;" d="M169.762,255.147c1.352,0.558,2.9-0.085,3.458-1.437c0.143-0.346,0.205-0.705,0.198-1.057
					c0.426-0.235,0.783-0.603,0.983-1.088c0.259-0.626,0.201-1.299-0.086-1.858c0.516-1.293-0.1-2.764-1.391-3.297
					c-1.3-0.537-2.789,0.082-3.326,1.382c-0.344,0.832-0.209,1.74,0.27,2.427c-0.674,0.246-1.248,0.754-1.544,1.469
					C167.767,253.041,168.41,254.589,169.762,255.147z"/>
				<g>
					<g>
						<path style="fill:#FF8C46;" d="M196.425,318.913l-20.613,1.919l6.226-25.694c0.42-1.732,2.793-1.953,3.526-0.328
							L196.425,318.913z"/>
						<polygon style="fill:#FFFFFF;" points="176.264,318.97 195.638,317.167 192.983,311.273 177.786,312.687 						"/>
						<polygon style="fill:#FFFFFF;" points="179.308,306.404 190.327,305.379 187.671,299.485 180.831,300.121 						"/>
					</g>
					
						<line style="fill:none;stroke:#FF640A;stroke-width:3.5119;stroke-linecap:round;stroke-miterlimit:10;" x1="174.917" y1="320.915" x2="197.321" y2="318.829"/>
					
						<line style="fill:none;stroke:#FF8C46;stroke-width:3.5119;stroke-linecap:round;stroke-miterlimit:10;" x1="178.414" y1="320.589" x2="187.413" y2="319.751"/>
					
						<line style="fill:none;stroke:#FFB478;stroke-width:3.5119;stroke-linecap:round;stroke-miterlimit:10;" x1="180.745" y1="320.372" x2="182.751" y2="320.185"/>
				</g>
				<path style="fill:#FFB49B;" d="M182.005,290.51c0,0-1.206,2.013-0.303,2.93c0.903,0.916,1.604,0.506,2.005,1.528
					c0.4,1.023,0.263,2.505,1.301,2.394c0.463-0.05,1.662-1.714,0.817-3.21C184.979,292.656,183.089,289.703,182.005,290.51z"/>
				<path style="fill:#FFB49B;" d="M181.495,292.696c0,0-0.118,2.07,0.684,3.655c0.03,0.059,0.091,0.096,0.157,0.096
					c0.066,0,0.127-0.038,0.157-0.097c0.13-0.259,0.279-0.645,0.186-0.923c-0.152-0.455,0.304-1.214,0.273-1.76
					C182.921,293.121,181.673,291.277,181.495,292.696z"/>
				<path style="fill:#41378C;" d="M152.484,329.096c-0.516,1.845,0.772,2.124,3.062,2.624c2.29,0.5,4.006,0.529,4.135-0.061
					c0.12-0.55-0.715-1.288-2.724-2.496C154.545,327.711,152.82,327.894,152.484,329.096z"/>
				<path style="fill:#FFB49B;" d="M154.4,324.711l-1.065,3.746c-0.157,0.464,0.074,0.97,0.527,1.156l0,0
					c0.456,0.188,0.98-0.014,1.192-0.459l1.919-3.623L154.4,324.711z"/>
				<path style="fill:#41378C;" d="M128.393,328.073c-0.284,1.895,1.029,2.012,3.363,2.226c2.334,0.213,4.041,0.03,4.096-0.572
					c0.051-0.561-0.869-1.189-3.012-2.141C130.268,326.444,128.578,326.839,128.393,328.073z"/>
				<path style="fill:#FFB49B;" d="M131.157,323.473l-1.645,3.529c-0.228,0.433-0.081,0.969,0.337,1.225l0,0
					c0.421,0.258,0.969,0.142,1.25-0.264l2.469-3.273L131.157,323.473z"/>
				<path style="fill:#41378C;" d="M149.658,271.763c0,0,12.472,8.81,18.212,26.034c2.071,6.214-9.211,25.931-10.864,28.768
					c-0.125,0.215-0.354,0.349-0.603,0.342c-0.876-0.026-1.706-0.234-2.498-0.597c-0.286-0.131-0.433-0.45-0.367-0.758
					c0.717-3.345,4.62-21.843,3.582-23.461c-4.063-6.334-19.364-10.963-20.411-19.038
					C135.663,274.976,143.814,267.708,149.658,271.763z"/>
				<path style="fill:#5046AF;" d="M148.285,274.479c0,0,1.256,7.615,2.721,25.711c0.537,6.628-15.795,23.805-17.713,25.798
					c-0.119,0.124-0.282,0.204-0.454,0.214c-1.071,0.065-1.923-0.272-2.642-0.853c-0.255-0.206-0.342-0.555-0.198-0.849
					c1.524-3.11,10.168-20.881,9.544-22.706c-2.435-7.121-7.435-11.35-6.525-19.442C133.927,274.26,143.577,269.146,148.285,274.479
					z"/>
				<path style="fill:#E16450;" d="M169.747,262.825c0,0-1.072,10.968,0.954,14.948c1.932,3.795,13.017,10.986,13.017,10.986
					c-1.133,4.141-3.572,7.468-6.634,10.406c0,0-11.701-12.846-13.243-18.273c-1.208-4.252,1.296-17.632,1.296-17.632
					L169.747,262.825z"/>
				<path style="fill:#C8462D;" d="M153.775,281.049c0,0,11.213-6.432,14.03-11.528c1.736-3.142,3.882-9.883-1.329-14.297
					c-3.475-2.944-13.908-3.92-17.277,0.82c-2.785,3.917-6.362,8.711-6.5,15.632C142.699,271.675,146.207,279.478,153.775,281.049z"
					/>
				<path style="fill:#FFA587;" d="M165.282,258.132c-0.844,1.014-2.351,1.151-3.365,0.307l0,0
					c-1.014-0.845-1.151-2.351-0.307-3.365l5.046-6.059l3.672,3.058L165.282,258.132z"/>
				<path style="fill:#F5876E;" d="M165.282,258.132l2.842-3.412l-3.604-3.002l-0.57,0.684c-1.456,1.748-1.84,4.971-0.268,6.576
					C164.284,258.918,164.864,258.633,165.282,258.132z"/>
				<g>
					<g>
						<path style="fill:#FF8C46;" d="M146.296,291.263l-12.251-16.688l25.235-7.882c1.701-0.531,3.112,1.391,2.095,2.854
							L146.296,291.263z"/>
						<polygon style="fill:#FFFFFF;" points="135.873,274.005 147.389,289.69 151.076,284.38 142.044,272.077 						"/>
						<polygon style="fill:#FFFFFF;" points="148.215,270.15 154.763,279.07 158.451,273.76 154.385,268.223 						"/>
					</g>
					
						<line style="fill:none;stroke:#FF640A;stroke-width:3.5119;stroke-linecap:round;stroke-miterlimit:10;" x1="133.513" y1="273.85" x2="146.829" y2="291.988"/>
					
						<line style="fill:none;stroke:#FF8C46;stroke-width:3.5119;stroke-linecap:round;stroke-miterlimit:10;" x1="135.591" y1="276.681" x2="140.94" y2="283.967"/>
					
						<line style="fill:none;stroke:#FFB478;stroke-width:3.5119;stroke-linecap:round;stroke-miterlimit:10;" x1="136.977" y1="278.569" x2="138.169" y2="280.193"/>
				</g>
				<path style="fill:#FFB49B;" d="M165.156,258.594L165.156,258.594c-1.607-1.339-2.145-5.078-0.806-6.685l2.763-3.317l6.457,4.077
					l-3.4,4.088C168.831,258.364,165.859,259.179,165.156,258.594z"/>
				<path style="fill:#FFA587;" d="M164.387,249.405c-0.598,0.718-0.508,1.78,0.202,2.371l2.166-2.601
					C166.046,248.584,164.985,248.687,164.387,249.405z"/>
				<path style="fill:#FFA587;" d="M173.296,253.003l-4.905-4.085l-0.899,1.079c-0.523-0.389-1.268-0.306-1.696,0.208
					c-0.111,0.133-0.188,0.282-0.236,0.437c0.16,0.055,0.323,0.093,0.487,0.104c0.339,0.023,0.657,0.16,0.918,0.379
					c0.595,0.498,1.318,0.75,2.053,0.763c1.011,0.017,1.998,0.425,2.664,1.186c0.001,0.002,0.003,0.003,0.004,0.005
					c0.425,0.475,1.187,0.433,1.595-0.057L173.296,253.003z"/>
				<path style="fill:#5046AF;" d="M175.624,248.386c-0.613-0.219-1.113-0.606-1.347-1.202c-0.435-1.106-1.113-2.099-2.156-2.669
					l-0.798-0.436l-0.042-0.023c-1.044-0.564-2.317-0.641-3.37-0.095c-0.625,0.324-1.108,0.756-1.458,1.247
					c-0.27,0.378-0.685,0.607-1.126,0.752c-0.319,0.105-0.609,0.294-0.837,0.566c-0.692,0.831-0.534,2.103,0.352,2.842
					c0.368,0.307,0.803,0.47,1.236,0.499c0.41,0.027,0.783,0.223,1.104,0.48c0.664,0.532,1.46,0.803,2.27,0.817
					c1.15,0.02,2.623,0.996,3.029,1.348c0.555,0.481,1.166,0.796,1.794,0.965C177.503,254.348,178.772,249.512,175.624,248.386z"/>
				<path style="fill:#FFB49B;" d="M148.189,276.549l3.298,2.154c2.197,1.31,1.638,1.872,1.597,2.029
					c-0.065,0.248,0.537,0.204,0.833,0.518c0.205,0.218,0.31,0.519,0.26,0.814c-0.215,1.263-1.789,1.682-2.748,2.329
					c-0.276,0.186-0.655,0.088-0.816-0.203l-1.397-2.898l-2.076-2.751L148.189,276.549z"/>
				<path style="fill:#E16450;" d="M155.892,255.613c-0.623-1.639-2.505-2.405-4.093-1.662c-5.537,2.59-17.134,8.229-19.278,10.975
					c-3.593,4.603,5.656,16.779,12.241,20.112c2.905-2.639,5.197-5.639,6.603-9.159c0,0-9.456-6.596-9.098-8.794
					c0.155-0.951,8.21-5.518,12.27-7.764C155.849,258.595,156.425,257.014,155.892,255.613L155.892,255.613z"/>
			</g>
			<g>
				<g>
					<path style="fill:#FF8C46;" d="M314.145,330.3h-20.702l8.581-25.006c0.578-1.686,2.962-1.686,3.541,0L314.145,330.3z"/>
					<polygon style="fill:#FFFFFF;" points="294.064,328.488 313.523,328.488 311.425,322.374 296.162,322.374 					"/>
					<polygon style="fill:#FFFFFF;" points="298.261,316.259 309.326,316.259 307.228,310.144 300.359,310.144 					"/>
				</g>
				
					<line style="fill:none;stroke:#FF640A;stroke-width:3.5119;stroke-linecap:round;stroke-miterlimit:10;" x1="292.543" y1="330.3" x2="315.044" y2="330.3"/>
				
					<line style="fill:none;stroke:#FF8C46;stroke-width:3.5119;stroke-linecap:round;stroke-miterlimit:10;" x1="296.055" y1="330.3" x2="305.094" y2="330.3"/>
				
					<line style="fill:none;stroke:#FFB478;stroke-width:3.5119;stroke-linecap:round;stroke-miterlimit:10;" x1="298.396" y1="330.3" x2="300.411" y2="330.3"/>
			</g>
		</g>
		<g>
			<path style="fill:#55C7A6;" d="M313.477,170.971c-0.209,10.148-5.298,24.339-10.162,40.557l0.443,7.64l-2.323-1.195
				c-1.806,6.399-3.483,13.057-4.741,19.862c-4.973,26.896,16.783,52.18,16.783,52.18s-6.884-45.35,0-68.087
				C320.362,199.192,313.477,170.971,313.477,170.971z"/>
			<path style="fill:#39AE96;" d="M313.259,289.703c-0.225-1.795-13.038-30.113-15.736-56.037c-0.291,1.384-0.571,2.773-0.829,4.169
				c-2.961,16.014,3.554,31.454,9.31,41.329C308.603,281.618,311.428,288.177,313.259,289.703z"/>
			<path style="fill:#FAC855;" d="M317.069,304.03h-7.621c-2.493,0-4.514-2.021-4.514-4.513v-12.134h16.648v12.134
				C321.583,302.009,319.562,304.03,317.069,304.03z"/>
			<path style="fill:#F2BD44;" d="M304.935,287.382v6.115h9.215c2.186,0,3.959,1.773,3.959,3.959v6.442
				c1.989-0.471,3.474-2.248,3.474-4.381v-12.134H304.935z"/>
			<path style="fill:#55C7A6;" d="M337.179,232.315c-3.398,3.255-6.194,7.084-8.149,11.364l-2.03,4.444v-7.326
				c-0.388,0.283-0.774,0.565-1.174,0.849c-14.548,10.32-12.747,37.988-11.598,47.781h1.426
				c3.565-11.887,12.794-32.127,21.361-40.456c9.483-9.219,12.306-31.882,12.306-31.882S346.16,223.711,337.179,232.315z"/>
			<path style="fill:#96DBBF;" d="M296.694,243.009c-0.149-3.478-1.544-6.953-3.658-10.29l-3.938,4.891l-0.336-5.166
				c-0.255-3.921-2.007-7.603-4.913-10.247c-8.892-8.092-19.129-13.762-19.129-13.762c15.537,15.791,16.863,30.28,19.895,46.157
				c3.032,15.877,28.863,35.423,28.863,35.423S297.24,255.775,296.694,243.009z"/>
			<path style="fill:#FFDC64;" d="M322.253,292.292h-17.987c-0.668,0-1.21-0.542-1.21-1.21v-2.758c0-0.669,0.542-1.21,1.21-1.21
				h17.987c0.668,0,1.211,0.542,1.211,1.21v2.758C323.463,291.75,322.921,292.292,322.253,292.292z"/>
			<path style="fill:#FFE678;" d="M313.049,287.114h-5.13c-0.744,0-1.346,0.603-1.346,1.346v2.486c0,0.743,0.603,1.346,1.346,1.346
				h5.13c0.744,0,1.346-0.603,1.346-1.346v-2.486C314.396,287.716,313.793,287.114,313.049,287.114z"/>
			<g>
				<path style="fill:#96DBBF;" d="M312.094,199.653c-0.534,6.175-1.412,12.317-2.471,18.427c-0.512,3.059-1.136,6.098-1.794,9.129
					c-0.642,3.046-1.457,6.024-1.884,9.063c-0.98,6.072-1.17,12.268-0.782,18.418c0.185,3.077,0.531,6.147,1.073,9.186
					c0.523,3.042,1.265,6.049,2.278,8.977c-2.414-5.726-3.559-11.923-4.118-18.105c-0.552-6.198-0.354-12.463,0.562-18.632
					c0.467-3.096,1.321-6.098,1.984-9.104c0.7-3.011,1.3-6.044,1.928-9.072c0.616-3.031,1.181-6.073,1.707-9.122
					C311.132,205.771,311.62,202.714,312.094,199.653z"/>
			</g>
			<g>
				<path style="fill:#96DBBF;" d="M338.631,237.232c-2.091,3.692-4.495,7.201-7.038,10.602c-1.257,1.713-2.607,3.355-3.976,4.98
					c-0.679,0.817-1.386,1.611-2.085,2.412c-0.342,0.402-0.65,0.809-0.977,1.213c-0.328,0.4-0.65,0.805-0.915,1.254l-0.864,1.296
					l-0.759,1.366c-0.536,0.895-0.906,1.88-1.364,2.819c-0.783,1.942-1.47,3.925-2.035,5.953c-0.567,2.025-1.048,4.08-1.404,6.161
					c-0.394,2.075-0.683,4.171-0.888,6.28c0.009-4.243,0.558-8.488,1.548-12.635c0.999-4.141,2.534-8.207,4.941-11.805
					c0.283-0.46,0.624-0.881,0.974-1.295c0.345-0.415,0.684-0.846,1.034-1.245c0.705-0.785,1.417-1.563,2.103-2.365
					c1.394-1.585,2.718-3.23,4.062-4.86c1.335-1.637,2.633-3.307,3.898-5.001C336.176,240.684,337.41,238.965,338.631,237.232z"/>
			</g>
			<g>
				<path style="fill:#D6EED8;" d="M280.832,225.309c2.601,4.571,4.659,9.436,6.496,14.365c0.939,2.46,1.746,4.966,2.522,7.481
					c0.795,2.505,1.443,5.078,2.243,7.539c1.552,4.971,3.88,9.679,6.488,14.2c1.312,2.261,2.738,4.456,4.241,6.6
					c1.485,2.158,3.072,4.246,4.753,6.265c-3.665-3.772-6.838-8.01-9.653-12.467c-1.391-2.24-2.682-4.548-3.803-6.942
					c-0.601-1.177-1.079-2.412-1.613-3.622c-0.471-1.235-0.96-2.467-1.362-3.729c-0.794-2.544-1.397-5.074-2.162-7.583
					c-0.73-2.515-1.552-5.001-2.374-7.488c-0.828-2.485-1.723-4.948-2.687-7.385C282.979,230.098,281.957,227.682,280.832,225.309z"
					/>
			</g>
		</g>
		<g>
			<path style="fill:#E64B55;" d="M112.484,139.943c1.796,4.421,5.369,11.521,1.794,12.973c-3.576,1.452-8.811-2.463-12.784-7.863
				c-2.828-3.843-2.312-9.032,1.264-10.485C106.334,133.115,110.688,135.522,112.484,139.943z"/>
			<path style="fill:#FFEBE1;" d="M105.177,145.901c4.639-0.205,11.42,18.153,10.705,22.798c-0.906,5.885-10.602,9.576-17.679,7.017
				c-0.072-4.001-5.042-9.38-3.41-12.884c0,0,11.294,1.944,12.675,0.142c0.8-1.043-2.301-9.289-3.924-13.401
				c-0.568-1.439,0.134-3.057,1.565-3.644C105.132,145.919,105.153,145.902,105.177,145.901z"/>
			<path style="fill:#E64B55;" d="M132.048,151.708c-0.824-0.182-1.423-0.873-1.556-1.706c-0.477-2.991-3.074-5.277-6.2-5.277
				c-0.259,0-0.515,0.016-0.765,0.047c-1.023,0.127-1.945-0.507-2.257-1.489c-0.872-2.743-3.145-4.889-6.014-5.658
				c-0.802-0.215-1.38-0.907-1.483-1.73c-0.137-1.096-0.855-1.953-2.065-2.224c-1.619-0.363-3.353,1.219-3.872,3.534
				c-0.122,0.546-0.073,1.102,0.069,1.636c-2.261,1.531-3.743,4.064-3.743,6.936c0,4.675,3.918,8.465,8.752,8.465
				c1.989,0,3.816-0.649,5.286-1.73c0.676,2.739,3.143,4.773,6.091,4.773c0.704,0,1.38-0.117,2.011-0.333
				c0.961-0.328,2.022-0.212,2.862,0.36c0.501,0.341,1.106,0.541,1.759,0.541c1.741,0,5.237-4.559,5.237-4.559
				C135.955,153.23,133.874,152.11,132.048,151.708z"/>
			<path style="fill:#FF640A;" d="M105.195,193.441c0,0-10.601-8.729-10.645-9.434c-0.125-1.969,9.101-3.022,10.34-8.883
				c0.012-0.057,0.023-0.113,0.034-0.17c0.976-5.05,3.602-9.271-0.926-6.83c-7.399,3.989-23.85,10.134-20.226,15.676
				c2.385,3.647,21.423,17.223,21.423,17.223V193.441z"/>
			<path style="fill:#00558C;" d="M106.001,215.951c1.919,0.365,1.59,1.668,1.008,3.987s-1.333,3.899-1.93,3.749
				c-0.557-0.14-0.852-1.237-1.045-3.619C103.801,217.206,104.751,215.713,106.001,215.951z"/>
			<path style="fill:#FFB49B;" d="M105.368,213.251l1.09,3.734c0.104,0.489-0.19,0.973-0.671,1.108l0,0
				c-0.484,0.136-0.99-0.13-1.153-0.606l-1.406-3.636L105.368,213.251z"/>
			<path style="fill:#FF8C46;" d="M105.709,169.015c0,0-12.801,11.445-13.791,16.064c-1.776,8.282,11.276,29.836,11.276,29.836
				c1.097,0.153,2.196-0.122,3.294-0.95c0,0-5.192-21.263-3.533-24.272c1.526-2.769,13.335-3.89,18.119-7.495
				c4.643-3.498,3.926-9.275,3.926-9.275l-2.384-8.492L105.709,169.015z"/>
			<path style="fill:#FFFFFF;" d="M108.396,173.379c0,0-5.928-7.003-7.571-12.707c-1.231-4.275,0.466-16.023,7.424-16.296
				c4.64-0.182,11.913,6.266,12.333,11.688c0.378,4.885-0.367,10.397-4.602,16.042C115.98,172.106,115.462,176.87,108.396,173.379z"
				/>
			<path style="fill:#FFA587;" d="M107.845,147.808L107.845,147.808c1.345-0.042,2.402-1.165,2.36-2.51l-0.248-8.036l-4.87,0.15
				l0.248,8.036C105.376,146.793,106.5,147.85,107.845,147.808z"/>
			<path style="fill:#F5876E;" d="M105.335,145.448l-0.14-4.525l4.78-0.148l0.028,0.907c0.072,2.318-1.644,5.149-3.915,5.451
				C105.642,146.707,105.355,146.114,105.335,145.448z"/>
			<path style="fill:#FFB49B;" d="M105.146,145.899L105.146,145.899c2.132-0.066,4.912-2.732,4.846-4.863l-0.136-4.4l-7.719,0.238
				l0.136,4.4C102.338,143.406,104.214,145.928,105.146,145.899z"/>
			<path style="fill:#FFA587;" d="M111.534,139.001c0.029,0.953-0.71,1.748-1.651,1.777l-0.107-3.45
				C110.718,137.3,111.505,138.048,111.534,139.001z"/>
			<path style="fill:#FFA587;" d="M102.119,136.296l7.67-0.237c0,0,0.09,2.018,0.111,2.699c0.005,0.176-0.026,0.345-0.085,0.499
				c-0.163-0.056-0.317-0.128-0.456-0.222c-0.295-0.201-0.648-0.281-1.004-0.272c-0.779,0.019-1.508-0.231-2.099-0.677
				c-0.823-0.621-1.872-0.914-2.884-0.72c-0.214,0.041-0.433,0.066-0.657,0.072c-0.183,0.006-0.384-0.007-0.561-0.024
				L102.119,136.296z"/>
			<g>
				<path style="fill:#373C41;" d="M99.501,170.109c0.05,0.137,0.03,0.289-0.053,0.408c-0.083,0.119-0.22,0.19-0.365,0.19h-4.199
					l-2.967-8.141h4.255c0.348,0,0.659,0.218,0.778,0.545L99.501,170.109z"/>
				<path style="fill:#50555A;" d="M98.759,170.109c0.05,0.137,0.03,0.289-0.053,0.408c-0.083,0.119-0.22,0.19-0.365,0.19h-3.619
					c-0.348,0-0.659-0.218-0.778-0.545l-2.551-6.999c-0.106-0.29,0.109-0.598,0.418-0.598h3.619c0.348,0,0.659,0.218,0.778,0.545
					L98.759,170.109z"/>
			</g>
			<path style="fill:#E64B55;" d="M108.44,138.191c-0.918,0.157-2.086-0.321-2.942-0.776c-0.663-0.352-1.406-0.457-2.157-0.448
				c-1.042,0.012-2.18-0.696-2.855-1.889c-0.9-1.591,0.085-4.521,0.085-4.521s1.127,0.14,2.26,0.557
				c0.991,0.365,2.1,0.414,3.044-0.06c0.389-0.195,0.816-0.339,1.274-0.417c2.307-0.394,4.466,0.977,4.822,3.063
				C112.328,135.787,110.747,137.798,108.44,138.191z"/>
			<path style="fill:#FFA587;" d="M102.364,167.297l2.544,0.614l-0.744,2.171l-2.669,0.291
				C101.714,169.328,102.002,168.302,102.364,167.297z"/>
			<path style="fill:#FFA587;" d="M92.658,166.636c0,0-1.092,0.814-0.742,2.199s-0.057,2.143,0.336,2.775
				c0.393,0.632,3.569,1.073,3.749,0.505c0.18-0.568,0.153-1.463-0.65-1.995c-0.803-0.532-2.276-2.339-2.276-2.339L92.658,166.636z"
				/>
			<path style="fill:#FFB49B;" d="M104.907,167.911l-3.904-0.943c-1.179-0.28-2.235-0.915-3.192-1.838l-0.043,0.039
				c-0.286,0.256-0.321,0.689-0.08,0.988c0.341,0.423,0.748,0.961,0.693,1.044c-0.846,1.274-5.275,0.022-5.399,0.697
				c-0.081,0.44,0.801,2.318,2.46,3.008c0.313,0.13,0.919,0.27,1.247,0.185l3.981-0.628l3.494-0.382L104.907,167.911z"/>
			<path style="fill:#FFEBE1;" d="M114.281,147.339c4.639-0.206,11.42,18.153,10.705,22.798c-0.906,5.885-16.409,7.528-23.486,4.969
				c-0.072-4.001,0.554-7.799,2.185-11.303c0,0,11.506,2.41,12.888,0.609c0.8-1.044-2.301-9.289-3.924-13.401
				c-0.568-1.439,0.134-3.057,1.565-3.644C114.236,147.357,114.256,147.34,114.281,147.339z"/>
		</g>
	</g>
</g>
<g id="DESIGNED_BY_FREEPIK">
	<g>
		<g id="XMLID_1_">
			<g id="XMLID_42_">
				<path id="XMLID_50_" style="fill:#F9FBFC;" d="M260.104,465.465c-0.432,0.443-0.803,0.931-1.108,1.453l-0.465-0.241
					c-0.067-0.298-0.349-0.503-0.659-0.466c-0.331,0.039-0.568,0.339-0.529,0.67c0.039,0.331,0.339,0.568,0.67,0.529
					c0.066-0.008,0.127-0.026,0.184-0.052l0.451,0.234c-0.251,0.554-0.433,1.139-0.539,1.744l0.746,0.132
					c0.23-1.306,0.85-2.507,1.792-3.473L260.104,465.465z"/>
				<path id="XMLID_49_" style="fill:#F9FBFC;" d="M265.592,463.163c-0.171,0-0.341,0.006-0.51,0.017l-0.074-0.626
					c0.188-0.149,0.296-0.389,0.266-0.645c-0.046-0.393-0.402-0.674-0.795-0.628c-0.393,0.046-0.674,0.402-0.628,0.795
					c0.03,0.254,0.189,0.461,0.404,0.564l0.074,0.624c-0.714,0.116-1.403,0.332-2.06,0.646l0.327,0.684
					c0.934-0.447,1.942-0.673,2.995-0.673c0.496,0,0.993,0.053,1.475,0.158l0.161-0.741
					C266.692,463.222,266.142,463.163,265.592,463.163z"/>
				<path id="XMLID_48_" style="fill:#F9FBFC;" d="M272.194,465.711c0.331-0.04,0.566-0.341,0.526-0.672
					c-0.04-0.331-0.341-0.566-0.672-0.526c-0.309,0.038-0.535,0.304-0.53,0.609l-0.416,0.363c-0.418-0.43-0.889-0.813-1.408-1.139
					l-0.404,0.641c1.134,0.715,2.021,1.726,2.563,2.925l0.69-0.313c-0.251-0.554-0.568-1.072-0.942-1.545l0.402-0.351
					C272.065,465.716,272.129,465.719,272.194,465.711z"/>
				<path id="XMLID_47_" style="fill:#F9FBFC;" d="M265.044,473.372c-0.386,0.023-0.775,0.035-1.157,0.035
					c-0.88,0-1.733-0.061-2.478-0.179c-0.39-0.062-0.846-0.155-1.27-0.292c1.046,1.861,3.069,3.125,5.388,3.125
					c2.855,0,5.262-1.916,5.95-4.504c-0.682,0.449-1.505,0.825-2.459,1.123C267.839,473.047,266.463,473.286,265.044,473.372z"/>
				<path id="XMLID_43_" style="fill:#F9FBFC;" d="M265.592,464.68c-3.352,0-6.08,2.666-6.08,5.943c0,0.426,0.046,0.849,0.137,1.261
					c0.673,0.483,2.706,0.89,5.348,0.731c2.879-0.173,5.297-0.957,6.672-2.159c-0.006-0.195-0.021-0.39-0.045-0.582
					C271.244,466.913,268.65,464.68,265.592,464.68z M263.432,471.194c-1.02,0-1.85-0.83-1.85-1.85c0-1.02,0.83-1.85,1.85-1.85
					c1.02,0,1.85,0.83,1.85,1.85C265.282,470.365,264.452,471.194,263.432,471.194z M268.17,470.286c-0.75,0-1.36-0.61-1.36-1.36
					s0.61-1.361,1.36-1.361c0.75,0,1.361,0.61,1.361,1.361S268.92,470.286,268.17,470.286z"/>
			</g>
			<path id="XMLID_40_" style="fill:#F9FBFC;" d="M281.595,466.547c-0.295-0.116-0.805-0.309-1.382-0.237
				c-0.551,0.069-0.844,0.341-0.844,1.007v0.866h2.228v1.717h-2.228v5.455h-1.932v-5.455h-1.34v-1.717h1.34v-0.888
				c0-1.68,0.896-2.783,2.568-2.783c0.643,0,1.157,0.122,1.59,0.308L281.595,466.547z"/>
			<path id="XMLID_334_" style="fill:#F9FBFC;" d="M286.298,469.879c-0.177-0.03-0.358-0.046-0.526-0.046
				c-0.895,0-1.51,0.548-1.51,1.614v3.908h-1.932v-7.172h1.873v0.785c0.451-0.673,1.14-0.977,2.021-0.977
				c0.414,0,0.848,0.128,1.094,0.337L286.298,469.879z"/>
			<path id="XMLID_38_" style="fill:#F9FBFC;" d="M293.965,471.757c0,0.222-0.015,0.489-0.037,0.651h-5.085
				c0.207,1.036,0.933,1.488,1.843,1.488c0.622,0,1.295-0.252,1.813-0.688l1.133,1.243c-0.814,0.748-1.85,1.088-3.057,1.088
				c-2.198,0-3.723-1.495-3.723-3.753c0-2.258,1.48-3.797,3.627-3.797C292.544,467.99,293.958,469.522,293.965,471.757z
				 M288.851,471.091h3.175c-0.177-0.918-0.733-1.436-1.562-1.436C289.554,469.655,289.021,470.203,288.851,471.091z"/>
			<path id="XMLID_25_" style="fill:#F9FBFC;" d="M301.618,471.757c0,0.222-0.015,0.489-0.037,0.651h-5.085
				c0.207,1.036,0.932,1.488,1.843,1.488c0.622,0,1.295-0.252,1.814-0.688l1.132,1.243c-0.814,0.748-1.85,1.088-3.057,1.088
				c-2.198,0-3.723-1.495-3.723-3.753c0-2.258,1.48-3.797,3.627-3.797C300.197,467.99,301.611,469.522,301.618,471.757z
				 M296.504,471.091h3.175c-0.178-0.918-0.733-1.436-1.562-1.436C297.207,469.655,296.674,470.203,296.504,471.091z"/>
			<path id="XMLID_22_" style="fill:#F9FBFC;" d="M309.964,471.764c0,2.154-1.495,3.775-3.471,3.775
				c-0.962,0-1.643-0.378-2.109-0.933v3.708h-1.924v-10.133h1.887v0.792c0.466-0.585,1.155-0.984,2.139-0.984
				C308.469,467.99,309.964,469.61,309.964,471.764z M304.287,471.764c0,1.132,0.747,1.976,1.843,1.976
				c1.14,0,1.85-0.881,1.85-1.976c0-1.095-0.711-1.976-1.85-1.976C305.035,469.788,304.287,470.632,304.287,471.764z"/>
			<path id="XMLID_17_" style="fill:#F9FBFC;" d="M313.067,465.836c0,0.696-0.54,1.229-1.236,1.229
				c-0.696,0-1.229-0.533-1.229-1.229c0-0.696,0.533-1.243,1.229-1.243C312.527,464.592,313.067,465.14,313.067,465.836z
				 M312.809,475.354h-1.932v-7.172h1.932V475.354z"/>
			<path id="XMLID_320_" style="fill:#F9FBFC;" d="M316.032,470.736l2.702-2.554h2.368l-3.479,3.375l3.501,3.797h-2.376
				l-2.716-2.901v2.901H314.1v-10.658h1.932V470.736z"/>
		</g>
		<g>
			<path style="fill:#F9FBFC;" d="M184.412,475.289v-1.055c-0.527,0.718-1.391,1.23-2.387,1.23c-1.846,0-3.149-1.406-3.149-3.706
				c0-2.256,1.289-3.721,3.149-3.721c0.952,0,1.816,0.469,2.387,1.245v-3.765h1.099v9.77H184.412z M184.412,473.37v-3.208
				c-0.395-0.615-1.245-1.143-2.124-1.143c-1.421,0-2.27,1.172-2.27,2.739c0,1.567,0.85,2.724,2.27,2.724
				C183.168,474.483,184.017,473.986,184.412,473.37z"/>
			<path style="fill:#F9FBFC;" d="M186.932,471.744c0-2.051,1.465-3.706,3.486-3.706c2.139,0,3.398,1.67,3.398,3.794v0.279h-5.727
				c0.088,1.333,1.025,2.446,2.549,2.446c0.805,0,1.626-0.322,2.182-0.894l0.527,0.718c-0.703,0.703-1.655,1.084-2.812,1.084
				C188.44,475.465,186.932,473.956,186.932,471.744z M190.403,468.947c-1.509,0-2.256,1.274-2.314,2.358h4.643
				C192.718,470.25,192.015,468.947,190.403,468.947z"/>
			<path style="fill:#F9FBFC;" d="M194.607,474.351l0.571-0.791c0.469,0.542,1.362,1.011,2.329,1.011c1.084,0,1.67-0.513,1.67-1.216
				c0-1.714-4.38-0.659-4.38-3.281c0-1.098,0.952-2.036,2.636-2.036c1.201,0,2.051,0.454,2.622,1.026l-0.513,0.762
				c-0.424-0.513-1.201-0.894-2.109-0.894c-0.967,0-1.567,0.483-1.567,1.113c0,1.552,4.38,0.527,4.38,3.281
				c0,1.187-0.952,2.138-2.783,2.138C196.306,475.465,195.325,475.113,194.607,474.351z"/>
			<path style="fill:#F9FBFC;" d="M201.477,466.471c0-0.41,0.337-0.747,0.732-0.747c0.41,0,0.747,0.337,0.747,0.747
				c0,0.41-0.337,0.732-0.747,0.732C201.814,467.203,201.477,466.881,201.477,466.471z M201.667,475.289v-7.075h1.099v7.075H201.667
				z"/>
			<path style="fill:#F9FBFC;" d="M204.582,477.105l0.556-0.82c0.586,0.703,1.289,0.967,2.3,0.967c1.172,0,2.27-0.571,2.27-2.124
				v-1.011c-0.513,0.718-1.377,1.26-2.373,1.26c-1.845,0-3.149-1.377-3.149-3.662c0-2.27,1.289-3.677,3.149-3.677
				c0.952,0,1.802,0.469,2.373,1.245v-1.069h1.098v6.87c0,2.344-1.641,3.076-3.369,3.076
				C206.237,478.16,205.417,477.926,204.582,477.105z M209.709,473.253v-3.091c-0.381-0.615-1.23-1.143-2.109-1.143
				c-1.421,0-2.27,1.128-2.27,2.695c0,1.553,0.849,2.695,2.27,2.695C208.478,474.41,209.328,473.868,209.709,473.253z"/>
			<path style="fill:#F9FBFC;" d="M217.413,475.289v-4.629c0-1.245-0.63-1.641-1.582-1.641c-0.865,0-1.685,0.527-2.095,1.099v5.17
				h-1.099v-7.075h1.099v1.025c0.498-0.586,1.465-1.201,2.519-1.201c1.48,0,2.256,0.747,2.256,2.285v4.966H217.413z"/>
			<path style="fill:#F9FBFC;" d="M219.932,471.744c0-2.051,1.465-3.706,3.486-3.706c2.139,0,3.398,1.67,3.398,3.794v0.279h-5.727
				c0.088,1.333,1.025,2.446,2.549,2.446c0.806,0,1.626-0.322,2.183-0.894l0.527,0.718c-0.703,0.703-1.655,1.084-2.812,1.084
				C221.441,475.465,219.932,473.956,219.932,471.744z M223.404,468.947c-1.509,0-2.256,1.274-2.314,2.358h4.643
				C225.718,470.25,225.015,468.947,223.404,468.947z"/>
			<path style="fill:#F9FBFC;" d="M233.35,475.289v-1.055c-0.527,0.718-1.392,1.23-2.388,1.23c-1.846,0-3.149-1.406-3.149-3.706
				c0-2.256,1.289-3.721,3.149-3.721c0.952,0,1.817,0.469,2.388,1.245v-3.765h1.098v9.77H233.35z M233.35,473.37v-3.208
				c-0.396-0.615-1.245-1.143-2.124-1.143c-1.421,0-2.27,1.172-2.27,2.739c0,1.567,0.849,2.724,2.27,2.724
				C232.105,474.483,232.954,473.986,233.35,473.37z"/>
			<path style="fill:#F9FBFC;" d="M239.692,475.289v-9.77h1.098v3.765c0.572-0.776,1.421-1.245,2.388-1.245
				c1.845,0,3.149,1.465,3.149,3.721c0,2.299-1.304,3.706-3.149,3.706c-0.996,0-1.86-0.513-2.388-1.23v1.055H239.692z
				 M242.9,474.483c1.436,0,2.285-1.157,2.285-2.724c0-1.568-0.85-2.739-2.285-2.739c-0.864,0-1.728,0.527-2.109,1.143v3.208
				C241.171,473.986,242.036,474.483,242.9,474.483z"/>
			<path style="fill:#F9FBFC;" d="M247.528,477.061c0.161,0.073,0.425,0.117,0.601,0.117c0.483,0,0.805-0.161,1.055-0.747
				l0.469-1.069l-2.959-7.148h1.187l2.358,5.8l2.344-5.8h1.201l-3.545,8.51c-0.425,1.025-1.143,1.421-2.08,1.435
				c-0.234,0-0.601-0.044-0.806-0.103L247.528,477.061z"/>
		</g>
	</g>
</g>
</svg>
