<?xml version="1.0" standalone="no"?>
<!DOCTYPE svg PUBLIC "-//W3C//DTD SVG 20010904//EN"
 "http://www.w3.org/TR/2001/REC-SVG-20010904/DTD/svg10.dtd">
<svg version="1.0" xmlns="http://www.w3.org/2000/svg"
 width="374.000000pt" height="385.000000pt" viewBox="0 0 374.000000 385.000000"
 preserveAspectRatio="xMidYMid meet">

<g transform="translate(0.000000,385.000000) scale(0.100000,-0.100000)"
fill="#000000" stroke="none">
<path d="M1775 3764 c-244 -28 -327 -50 -597 -158 -92 -36 -195 -74 -230 -83
-88 -23 -233 -23 -277 -1 -49 26 -61 12 -61 -73 0 -56 6 -83 30 -136 36 -78
36 -84 9 -109 -94 -84 -168 -311 -154 -474 7 -78 30 -213 46 -265 49 -162 82
-258 104 -299 14 -27 25 -57 25 -66 0 -10 7 -23 15 -30 12 -10 16 -9 21 6 4
11 15 39 26 64 23 55 32 44 42 -50 11 -95 47 -169 105 -213 67 -51 118 -60
344 -56 188 4 193 5 238 31 53 31 97 79 111 120 11 32 28 37 28 9 0 -10 6 -24
14 -30 11 -9 17 -4 30 29 11 28 30 49 64 71 40 26 54 30 99 26 58 -4 111 -35
138 -79 23 -39 35 -35 35 12 0 30 -8 48 -32 76 -42 48 -83 64 -158 64 -67 0
-117 -17 -150 -50 -12 -12 -23 -20 -25 -18 -2 2 2 28 8 58 11 50 16 57 52 75
30 14 60 19 120 18 101 0 150 -19 158 -59 15 -80 49 -181 74 -222 17 -28 48
-59 77 -77 l49 -30 231 -3 231 -3 55 33 c86 52 113 102 141 261 9 53 15 67 29
67 13 0 20 -14 29 -60 7 -33 16 -62 21 -65 5 -3 20 9 33 27 101 136 179 458
163 671 -6 83 -49 228 -94 312 -92 175 -316 321 -483 314 -33 -1 -63 2 -68 7
-5 5 -16 31 -24 58 -50 150 -232 267 -451 290 -97 10 -160 14 -191 10z m531
-850 c15 -19 77 -79 138 -132 61 -53 129 -113 151 -134 22 -20 50 -44 63 -55
22 -18 16 -18 -276 -18 l-299 0 -42 -29 c-23 -16 -56 -49 -74 -73 -22 -31 -35
-42 -46 -37 -31 13 -179 16 -231 5 l-54 -12 -39 46 c-74 86 -86 89 -378 95
l-257 5 85 100 c46 55 96 124 111 153 14 28 30 52 35 52 5 0 52 -11 105 -24
311 -79 702 -54 904 57 35 19 66 35 70 36 4 0 19 -15 34 -35z"/>
<path d="M490 1835 c23 -29 116 -65 165 -65 25 0 45 3 45 8 -1 25 -32 40 -108
51 -46 7 -91 15 -100 19 -15 5 -15 4 -2 -13z"/>
<path d="M3060 1835 c-30 -7 -81 -14 -112 -14 -37 -1 -62 -6 -72 -17 -25 -25
-10 -34 59 -34 72 0 161 28 190 60 21 23 17 23 -65 5z"/>
<path d="M2169 1704 c-62 -66 -175 -108 -322 -119 -89 -7 -97 -9 -83 -23 27
-28 146 -42 225 -26 85 16 119 32 158 78 29 32 60 102 51 112 -3 2 -15 -8 -29
-22z"/>
<path d="M3096 1648 c-28 -36 -123 -166 -155 -213 -12 -16 -56 -77 -99 -135
-42 -58 -90 -124 -105 -147 -50 -72 -58 -76 -121 -63 -31 6 -65 8 -76 5 -33
-11 -70 -57 -70 -89 0 -28 0 -29 -47 -22 -27 3 -82 17 -123 29 l-75 24 -3 76
c-2 67 0 78 15 83 52 17 176 82 238 125 75 51 142 115 133 125 -6 5 -48 -14
-58 -27 -8 -10 -162 -86 -190 -94 -14 -4 -29 -11 -35 -15 -22 -17 -255 -80
-296 -80 -15 0 -30 -4 -33 -8 -8 -13 -258 -22 -376 -13 -145 12 -372 63 -469
107 -72 33 -86 25 -27 -15 110 -73 238 -124 402 -158 69 -14 135 -18 297 -18
114 0 207 -4 207 -9 0 -28 -100 -137 -190 -206 -44 -34 -47 -35 -135 -34 -121
1 -203 34 -271 107 l-48 50 -145 -38 c-81 -21 -195 -51 -256 -67 -60 -17 -148
-40 -195 -52 -99 -26 -153 -55 -230 -125 l-55 -50 110 -108 c141 -137 266
-227 430 -307 238 -117 424 -163 700 -173 171 -6 313 8 465 47 129 33 299 97
300 112 0 10 -66 43 -137 69 -94 34 -121 84 -60 112 36 17 93 33 152 43 l40 7
-50 23 c-27 13 -64 24 -82 24 -58 0 -118 73 -80 97 35 23 92 35 185 40 138 8
116 27 -70 65 -32 6 -58 17 -58 24 0 31 182 84 292 84 43 0 78 3 78 8 0 13
-98 53 -161 66 -33 6 -60 16 -60 21 -2 25 130 65 237 72 l82 6 -14 32 c-12 31
-11 36 18 81 43 68 112 171 150 224 17 25 41 59 52 75 63 90 78 105 110 105
18 0 37 5 43 11 11 11 45 -10 216 -134 54 -39 67 -54 63 -69 -2 -11 0 -31 6
-44 13 -27 10 -31 -92 -169 -36 -49 -93 -126 -125 -170 -33 -44 -77 -101 -98
-127 -29 -35 -38 -53 -34 -70 11 -44 50 -153 57 -162 7 -7 63 33 305 218 11 9
47 36 80 61 135 102 144 115 108 148 -10 9 -27 32 -37 51 -18 34 -18 37 -3 54
27 29 20 52 -28 94 -43 38 -56 70 -35 83 21 13 8 34 -47 75 -32 24 -65 50 -73
60 -25 28 -297 220 -312 220 -4 0 -19 -15 -32 -32z m437 -466 c5 -42 3 -56
-11 -70 -15 -15 -153 -164 -268 -290 -21 -24 -49 -50 -62 -58 l-23 -15 20 38
c10 21 42 70 69 108 28 39 60 84 72 100 11 17 38 55 60 85 22 30 49 70 62 88
68 98 72 98 81 14z m41 -129 c-4 -10 -7 -32 -6 -50 2 -28 -4 -36 -46 -65 -26
-17 -51 -37 -57 -43 -5 -6 -23 -20 -39 -31 -16 -10 -44 -29 -62 -42 -44 -29
-43 -16 2 34 20 21 64 71 97 109 64 74 97 104 111 105 4 0 5 -8 0 -17z"/>
<path d="M2015 1433 c-11 -3 -28 -12 -38 -21 -17 -15 -17 -17 -1 -29 30 -22
104 9 104 44 0 13 -26 15 -65 6z"/>
<path d="M3005 1255 c-45 -21 -74 -49 -90 -89 -40 -95 5 -187 106 -218 110
-32 228 84 198 194 -26 97 -130 152 -214 113z"/>
</g>
</svg>
